<mxfile host="65bd71144e">
    <diagram id="ycOPQLDIYc8ZWvYrpJF7" name="Page-1">
        <mxGraphModel dx="1869" dy="645" grid="1" gridSize="10" guides="1" tooltips="1" connect="1" arrows="1" fold="1" page="1" pageScale="1" pageWidth="827" pageHeight="1169" math="0" shadow="0">
            <root>
                <mxCell id="0"/>
                <mxCell id="1" parent="0"/>
                <mxCell id="32" value="Guest" style="swimlane;childLayout=stackLayout;horizontal=1;startSize=30;horizontalStack=0;rounded=1;fontSize=14;fontStyle=0;strokeWidth=2;resizeParent=0;resizeLast=1;shadow=0;dashed=0;align=center;fontFamily=Verdana;fillColor=#006666;strokeColor=#6c8ebf;gradientColor=#7ea6e0;gradientDirection=north;" vertex="1" parent="1">
                    <mxGeometry x="110" y="200" width="190" height="130" as="geometry"/>
                </mxCell>
                <mxCell id="33" value="+ ID (INT) PK&#10;+ Name (varchar) NN&#10;+ Phone no (varchar) U NN&#10;+ Email (varchar) UNN&#10;+ Address (text) &#10;+ &#10;" style="align=left;strokeColor=none;fillColor=none;spacingLeft=4;fontSize=12;verticalAlign=top;resizable=0;rotatable=0;part=1;fontFamily=Verdana;" vertex="1" parent="32">
                    <mxGeometry y="30" width="190" height="100" as="geometry"/>
                </mxCell>
                <mxCell id="34" value="GuestHouse" style="swimlane;childLayout=stackLayout;horizontal=1;startSize=30;horizontalStack=0;rounded=1;fontSize=14;fontStyle=0;strokeWidth=2;resizeParent=0;resizeLast=1;shadow=0;dashed=0;align=center;fontFamily=Verdana;arcSize=8;fillColor=#006666;strokeColor=#6c8ebf;gradientColor=#7ea6e0;gradientDirection=north;" vertex="1" parent="1">
                    <mxGeometry x="280" y="505" width="160" height="80" as="geometry"/>
                </mxCell>
                <mxCell id="35" value="+ ID (INT) PK&#10;+ Name (varchar) UNN" style="align=left;strokeColor=none;fillColor=none;spacingLeft=4;fontSize=12;verticalAlign=top;resizable=0;rotatable=0;part=1;fontFamily=Verdana;" vertex="1" parent="34">
                    <mxGeometry y="30" width="160" height="50" as="geometry"/>
                </mxCell>
                <mxCell id="36" value="Room" style="swimlane;childLayout=stackLayout;horizontal=1;startSize=30;horizontalStack=0;rounded=1;fontSize=14;fontStyle=0;strokeWidth=2;resizeParent=0;resizeLast=1;shadow=0;dashed=0;align=center;fontFamily=Verdana;fillColor=#006666;strokeColor=#6c8ebf;gradientColor=#7ea6e0;gradientDirection=north;" vertex="1" parent="1">
                    <mxGeometry x="30" y="390" width="190" height="160" as="geometry"/>
                </mxCell>
                <mxCell id="37" value="+ ID (INT) PK&#10;+ RoomNo (varchar) NN&#10;+ GuestHouseId (INT) FK NN &#10;+ Block (varchar) &#10;+ Floor (INT)&#10;+ vacant (Bool) NN&#10;+ Maintainance (Bool) &#10;+ type (INT) FK NN" style="align=left;strokeColor=none;fillColor=none;spacingLeft=4;fontSize=12;verticalAlign=top;resizable=0;rotatable=0;part=1;fontFamily=Verdana;" vertex="1" parent="36">
                    <mxGeometry y="30" width="190" height="130" as="geometry"/>
                </mxCell>
                <mxCell id="43" value="booking" style="swimlane;childLayout=stackLayout;horizontal=1;startSize=30;horizontalStack=0;rounded=1;fontSize=14;fontStyle=0;strokeWidth=2;resizeParent=0;resizeLast=1;shadow=0;dashed=0;align=center;fontFamily=Verdana;fillColor=#006600;strokeColor=#82b366;gradientColor=#97d077;gradientDirection=north;" vertex="1" parent="1">
                    <mxGeometry x="460" y="350" width="210" height="160" as="geometry"/>
                </mxCell>
                <mxCell id="44" value="+ ID (INT) PK&#10;+ GuestID (INT) FK NN&#10;+ RoomID (INT) FK NN&#10;+ Paid (Bool) NN&#10;+ PaymentOption (INT) FK NN&#10;+ CheckInDate (Date) NN&#10;+ CheckOutDate (Date) NN" style="align=left;strokeColor=none;fillColor=none;spacingLeft=4;fontSize=12;verticalAlign=top;resizable=0;rotatable=0;part=1;fontFamily=Verdana;" vertex="1" parent="43">
                    <mxGeometry y="30" width="210" height="130" as="geometry"/>
                </mxCell>
                <mxCell id="47" value="_RoomType" style="swimlane;childLayout=stackLayout;horizontal=1;startSize=30;horizontalStack=0;rounded=1;fontSize=14;fontStyle=0;strokeWidth=2;resizeParent=0;resizeLast=1;shadow=0;dashed=0;align=center;fontFamily=Verdana;fillColor=#f8cecc;strokeColor=#b85450;gradientColor=#ea6b66;" vertex="1" parent="1">
                    <mxGeometry x="-220" y="390" width="190" height="110" as="geometry"/>
                </mxCell>
                <mxCell id="48" value="+ ID (INT) PK&#10;+ OccupancyLimit (INT) NN&#10;+ Suite (Bool) NN&#10;+ Price (INT) NN" style="align=left;strokeColor=none;fillColor=none;spacingLeft=4;fontSize=12;verticalAlign=top;resizable=0;rotatable=0;part=1;fontFamily=Verdana;" vertex="1" parent="47">
                    <mxGeometry y="30" width="190" height="80" as="geometry"/>
                </mxCell>
                <mxCell id="81" value="" style="edgeStyle=entityRelationEdgeStyle;fontSize=12;html=1;endArrow=ERoneToMany;fontFamily=Verdana;fontColor=#F0F0F0;entryX=1;entryY=0.308;entryDx=0;entryDy=0;entryPerimeter=0;exitX=0;exitY=0.25;exitDx=0;exitDy=0;" edge="1" parent="1" source="35" target="37">
                    <mxGeometry width="100" height="100" relative="1" as="geometry">
                        <mxPoint x="350" y="370" as="sourcePoint"/>
                        <mxPoint x="450" y="270" as="targetPoint"/>
                    </mxGeometry>
                </mxCell>
                <mxCell id="83" value="" style="edgeStyle=entityRelationEdgeStyle;fontSize=12;html=1;endArrow=ERzeroToMany;endFill=1;fontFamily=Verdana;fontColor=#F0F0F0;entryX=0.008;entryY=0.312;entryDx=0;entryDy=0;entryPerimeter=0;exitX=1;exitY=0;exitDx=0;exitDy=0;" edge="1" parent="1" source="37" target="44">
                    <mxGeometry width="100" height="100" relative="1" as="geometry">
                        <mxPoint x="210" y="430" as="sourcePoint"/>
                        <mxPoint x="410" y="360" as="targetPoint"/>
                    </mxGeometry>
                </mxCell>
                <mxCell id="85" value="" style="edgeStyle=entityRelationEdgeStyle;fontSize=12;html=1;endArrow=ERoneToMany;fontFamily=Verdana;fontColor=#F0F0F0;entryX=-0.003;entryY=0.107;entryDx=0;entryDy=0;entryPerimeter=0;exitX=1;exitY=0;exitDx=0;exitDy=0;" edge="1" parent="1" source="33" target="44">
                    <mxGeometry width="100" height="100" relative="1" as="geometry">
                        <mxPoint x="340" y="210" as="sourcePoint"/>
                        <mxPoint x="385" y="330" as="targetPoint"/>
                    </mxGeometry>
                </mxCell>
                <mxCell id="88" value="" style="edgeStyle=entityRelationEdgeStyle;fontSize=12;html=1;endArrow=ERoneToMany;fontFamily=Verdana;fontColor=#F0F0F0;entryX=0;entryY=0.75;entryDx=0;entryDy=0;exitX=1;exitY=0;exitDx=0;exitDy=0;" edge="1" parent="1" source="48" target="37">
                    <mxGeometry width="100" height="100" relative="1" as="geometry">
                        <mxPoint x="-80" y="420" as="sourcePoint"/>
                        <mxPoint x="20" y="320" as="targetPoint"/>
                    </mxGeometry>
                </mxCell>
                <mxCell id="91" value="FoodItem" style="swimlane;childLayout=stackLayout;horizontal=1;startSize=30;horizontalStack=0;rounded=1;fontSize=14;fontStyle=0;strokeWidth=2;resizeParent=0;resizeLast=1;shadow=0;dashed=0;align=center;fontFamily=Verdana;fillColor=#006666;strokeColor=#6c8ebf;gradientColor=#7ea6e0;gradientDirection=north;" vertex="1" parent="1">
                    <mxGeometry x="-220" y="90" width="190" height="100" as="geometry"/>
                </mxCell>
                <mxCell id="92" value="+ ID (INT) PK&#10;+ Name (varchar) NN&#10;+ Price (INT) NN&#10;+ Availability (Bool) &#10;" style="align=left;strokeColor=none;fillColor=none;spacingLeft=4;fontSize=12;verticalAlign=top;resizable=0;rotatable=0;part=1;fontFamily=Verdana;" vertex="1" parent="91">
                    <mxGeometry y="30" width="190" height="70" as="geometry"/>
                </mxCell>
                <mxCell id="93" value="FoodOrders" style="swimlane;childLayout=stackLayout;horizontal=1;startSize=30;horizontalStack=0;rounded=1;fontSize=14;fontStyle=0;strokeWidth=2;resizeParent=0;resizeLast=1;shadow=0;dashed=0;align=center;fontFamily=Verdana;fillColor=#006600;strokeColor=#82b366;gradientColor=#97d077;gradientDirection=north;" vertex="1" parent="1">
                    <mxGeometry x="400" y="30" width="210" height="120" as="geometry"/>
                </mxCell>
                <mxCell id="94" value="+ ID (INT) PK&#10;+ GuestID (INT) FK NN&#10;+ Paid (Bool) NN&#10;+ PaymentOption (INT) FK NN&#10;+ TotalAmount (INT) NN" style="align=left;strokeColor=none;fillColor=none;spacingLeft=4;fontSize=12;verticalAlign=top;resizable=0;rotatable=0;part=1;fontFamily=Verdana;" vertex="1" parent="93">
                    <mxGeometry y="30" width="210" height="90" as="geometry"/>
                </mxCell>
                <mxCell id="97" value="FoodItemBooking" style="swimlane;childLayout=stackLayout;horizontal=1;startSize=30;horizontalStack=0;rounded=1;fontSize=14;fontStyle=0;strokeWidth=2;resizeParent=0;resizeLast=1;shadow=0;dashed=0;align=center;fontFamily=Verdana;fillColor=#006600;strokeColor=#82b366;gradientColor=#97d077;gradientDirection=north;" vertex="1" parent="1">
                    <mxGeometry x="30" y="10" width="210" height="90" as="geometry"/>
                </mxCell>
                <mxCell id="98" value="+ ID (INT) PK&#10;+ OrderId (INT) FK&#10;+ FoodItemId (INT) FK" style="align=left;strokeColor=none;fillColor=none;spacingLeft=4;fontSize=12;verticalAlign=top;resizable=0;rotatable=0;part=1;fontFamily=Verdana;" vertex="1" parent="97">
                    <mxGeometry y="30" width="210" height="60" as="geometry"/>
                </mxCell>
                <mxCell id="99" value="" style="edgeStyle=entityRelationEdgeStyle;fontSize=12;html=1;endArrow=ERzeroToMany;endFill=1;fontFamily=Verdana;fontColor=#F0F0F0;entryX=0;entryY=0.75;entryDx=0;entryDy=0;exitX=1;exitY=0.75;exitDx=0;exitDy=0;" edge="1" parent="1" source="92" target="98">
                    <mxGeometry width="100" height="100" relative="1" as="geometry">
                        <mxPoint x="-80" y="190" as="sourcePoint"/>
                        <mxPoint x="20" y="90" as="targetPoint"/>
                    </mxGeometry>
                </mxCell>
                <mxCell id="100" value="" style="fontSize=12;html=1;endArrow=ERoneToMany;fontFamily=Verdana;fontColor=#F0F0F0;entryX=0.002;entryY=0.1;entryDx=0;entryDy=0;exitX=1;exitY=0.5;exitDx=0;exitDy=0;entryPerimeter=0;" edge="1" parent="1" source="98" target="94">
                    <mxGeometry width="100" height="100" relative="1" as="geometry">
                        <mxPoint x="310" y="130" as="sourcePoint"/>
                        <mxPoint x="300" y="30" as="targetPoint"/>
                    </mxGeometry>
                </mxCell>
                <mxCell id="102" value="" style="edgeStyle=entityRelationEdgeStyle;fontSize=12;html=1;endArrow=ERzeroToMany;endFill=1;fontFamily=Verdana;fontColor=#F0F0F0;elbow=vertical;exitX=1;exitY=0;exitDx=0;exitDy=0;entryX=0;entryY=0.5;entryDx=0;entryDy=0;" edge="1" parent="1" source="33" target="93">
                    <mxGeometry width="100" height="100" relative="1" as="geometry">
                        <mxPoint x="390" y="270" as="sourcePoint"/>
                        <mxPoint x="490" y="170" as="targetPoint"/>
                    </mxGeometry>
                </mxCell>
            </root>
        </mxGraphModel>
    </diagram>
</mxfile>